<?xml version="1.0" encoding="UTF-8"?>
<svg id="Layer_2" data-name="Layer 2" xmlns="http://www.w3.org/2000/svg" viewBox="0 0 23.13 24">
  <defs>
    <style>
      .cls-1, .cls-2 {
        fill: #f44336;
        fill-rule: evenodd;
      }

      .cls-3 {
        fill: #1c274c;
      }

      .cls-2 {
        isolation: isolate;
      }

      .cls-4 {
        fill: #fff;
      }
    </style>
  </defs>
  <path class="cls-2" d="M0,14.75c0-4.36,0-6.54,1.35-7.9,1.35-1.35,3.54-1.35,7.9-1.35h4.63c4.36,0,6.54,0,7.9,1.35,1.36,1.35,1.36,3.54,1.36,7.9s0,6.54-1.36,7.9c-1.35,1.36-3.54,1.36-7.9,1.36h-4.63c-4.36,0-6.54,0-7.9-1.36-1.35-1.35-1.35-3.54-1.35-7.9ZM12.43,13.01c0-.48-.39-.87-.87-.87s-.87.39-.87.87v.87h-.87c-.48,0-.87.39-.87.87s.39.87.87.87h.87v.87c0,.48.39.87.87.87s.87-.39.87-.87v-.87h.87c.48,0,.87-.39.87-.87s-.39-.87-.87-.87h-.87v-.87Z"/>
  <circle class="cls-4" cx="11.57" cy="14.75" r="4.63"/>
  <path class="cls-3" d="M11.63,0h-.12c-1.04,0-1.91,0-2.59.09-.73.1-1.38.31-1.91.84-.53.53-.74,1.18-.84,1.91-.09.69-.09,1.55-.09,2.59v.09c.53-.02,1.1-.02,1.73-.03h0c0-1.12,0-1.87.08-2.42.07-.53.2-.76.35-.91.15-.15.38-.27.91-.35.56-.08,1.31-.08,2.42-.08s1.86,0,2.42.08c.53.07.76.2.91.35.15.15.27.38.35.91.08.56.08,1.31.08,2.42h0c.63,0,1.21.01,1.73.03v-.09c0-1.04,0-1.91-.09-2.59-.1-.73-.31-1.38-.84-1.91-.53-.53-1.18-.74-1.91-.84C13.53,0,12.66,0,11.63,0Z"/>
  <path class="cls-1" d="M12.43,13.01c0-.48-.39-.87-.87-.87s-.87.39-.87.87v.87h-.87c-.48,0-.87.39-.87.87s.39.87.87.87h.87v.87c0,.48.39.87.87.87s.87-.39.87-.87v-.87h.87c.48,0,.87-.39.87-.87s-.39-.87-.87-.87h-.87v-.87Z"/>
</svg>