<?xml version="1.0" encoding="UTF-8"?>
<svg id="Layer_1" data-name="Layer 1" xmlns="http://www.w3.org/2000/svg" viewBox="0 0 24 24">
  <defs>
    <style>
      .cls-1 {
        fill: #d82621;
      }
    </style>
  </defs>
  <path class="cls-1" d="M12,.36C5.56.36.36,5.56.36,12s5.2,11.64,11.64,11.64,11.64-5.2,11.64-11.64S18.4.36,12,.36h0ZM12,4.73c1.35,0,2.62.36,3.67,1.02L5.75,15.67c-.65-1.09-1.02-2.33-1.02-3.67,0-4,3.24-7.27,7.27-7.27h0ZM12,19.27c-1.35,0-2.62-.36-3.67-1.02l9.96-9.96c.65,1.09,1.02,2.33,1.02,3.67-.04,4.04-3.31,7.31-7.31,7.31Z"/>
  <path class="cls-1" d="M12,24C5.38,24,0,18.62,0,12S5.38,0,12,0s12,5.38,12,12-5.38,12-12,12ZM12,.73C5.78.73.73,5.78.73,12s5.05,11.27,11.27,11.27,11.27-5.05,11.27-11.27S18.22.73,12,.73ZM12,19.64c-1.35,0-2.69-.36-3.89-1.05-.11-.07-.15-.15-.18-.25,0-.11.04-.22.11-.29l9.96-9.96c.07-.07.18-.11.29-.11s.22.07.25.18c.69,1.16,1.05,2.51,1.05,3.89.04,4.18-3.42,7.6-7.6,7.6ZM8.91,18.18c.95.47,2.04.73,3.09.73,3.82,0,6.91-3.09,6.91-6.91,0-1.05-.25-2.15-.73-3.09l-9.27,9.27h0ZM5.75,16.04h-.04c-.11,0-.22-.07-.25-.18-.69-1.16-1.05-2.51-1.05-3.89,0-4.22,3.42-7.64,7.64-7.64,1.35,0,2.69.36,3.89,1.05.11.07.15.15.18.25s-.04.22-.11.29L6,15.93c-.07.07-.18.11-.25.11h0ZM12,5.09c-3.82,0-6.91,3.09-6.91,6.91,0,1.05.25,2.15.73,3.09L15.09,5.82c-.98-.47-2.04-.73-3.09-.73h0Z"/>
</svg>