<?xml version="1.0" encoding="UTF-8"?>
<svg id="Layer_2" data-name="Layer 2" xmlns="http://www.w3.org/2000/svg" viewBox="0 0 20.49 24">
  <defs>
    <style>
      .cls-1 {
        fill: #2d213f;
      }

      .cls-2 {
        fill: #aae1e9;
      }

      .cls-3 {
        fill: #92c1ca;
      }
    </style>
  </defs>
  <g>
    <path class="cls-1" d="M17.49,6.9c3.99,3.9,3.99,10.26,0,14.16-1.93,1.89-4.51,2.94-7.24,2.94s-5.31-1.04-7.25-2.94c-1.93-1.89-3-4.41-3-7.08s1.07-5.19,3-7.08L9.7.21c.29-.28.8-.28,1.08,0l6.71,6.69ZM16.42,20.02c3.41-3.33,3.41-8.75,0-12.07,0,0,0,0,0,0L10.25,1.79l-6.17,6.15c-1.65,1.62-2.56,3.76-2.56,6.04s.91,4.42,2.56,6.04c1.65,1.61,3.84,2.5,6.18,2.5s4.52-.89,6.18-2.5Z"/>
    <path class="cls-1" d="M15.52,8.04c.11.1,2.78,2.51,2.19,6.44-.06.37-.38.63-.75.63-.04,0-.07,0-.11,0-.41-.06-.7-.44-.64-.84.47-3.16-1.69-5.11-1.71-5.13-.31-.27-.33-.74-.06-1.04.28-.3.76-.33,1.07-.05Z"/>
    <path class="cls-1" d="M16.84,15.68c.35.22.46.68.23,1.02l-.42.64c-.14.22-.39.34-.64.34-.14,0-.28-.04-.4-.12-.35-.22-.46-.68-.23-1.02l.41-.64c.23-.35.69-.44,1.04-.23Z"/>
    <path class="cls-2" d="M16.42,7.94c3.41,3.33,3.41,8.75,0,12.07-1.65,1.61-3.84,2.5-6.18,2.5s-4.53-.89-6.18-2.5c-1.65-1.61-2.56-3.76-2.56-6.04s.91-4.42,2.56-6.04L10.25,1.79l6.17,6.15s0,0,0,0ZM17.71,14.48c.58-3.93-2.08-6.34-2.19-6.44-.31-.28-.79-.25-1.07.05-.28.3-.25.77.06,1.04.02.02,2.18,1.97,1.71,5.13-.06.4.23.78.64.84.04,0,.07,0,.11,0,.37,0,.69-.26.75-.63ZM17.07,16.7c.23-.34.12-.8-.23-1.02s-.82-.12-1.04.23l-.41.64c-.23.34-.12.8.23,1.02.13.08.27.12.4.12.25,0,.49-.12.64-.34l.42-.64Z"/>
  </g>
  <path class="cls-3" d="M2.59,9.87c-.7,1.25-1.08,2.65-1.08,4.11,0,2.28.91,4.42,2.56,6.04,1.65,1.61,3.84,2.5,6.18,2.5,1.83,0,3.57-.55,5.03-1.56-9.97.57-12.54-6-12.68-11.09Z"/>
</svg>